<?xml version="1.0" standalone="no"?>
<!DOCTYPE svg PUBLIC "-//W3C//DTD SVG 20010904//EN"
 "http://www.w3.org/TR/2001/REC-SVG-20010904/DTD/svg10.dtd">
<svg version="1.0" xmlns="http://www.w3.org/2000/svg"
 width="400.000000pt" height="400.000000pt" viewBox="0 0 400.000000 400.000000"
 preserveAspectRatio="xMidYMid meet">

<g transform="translate(0.000000,400.000000) scale(0.100000,-0.100000)"
fill="#000000" stroke="none">
<path d="M1825 3993 c-48 -10 -77 -28 -90 -54 -17 -32 -19 -67 -6 -88 6 -9 2
-25 -10 -45 -43 -71 -6 -142 83 -158 14 -3 12 -13 -19 -73 -36 -73 -106 -174
-131 -189 -8 -4 -23 -17 -35 -29 -11 -11 -47 -34 -79 -51 -82 -42 -106 -92
-74 -155 27 -51 89 -64 144 -31 47 29 64 25 103 -22 19 -23 43 -51 54 -62 12
-12 36 -41 55 -66 19 -25 53 -64 75 -86 87 -90 103 -120 91 -169 -19 -76 -116
-99 -170 -40 -19 21 -32 25 -77 25 -83 -1 -268 -26 -329 -45 -129 -40 -159
-48 -235 -67 -44 -10 -104 -31 -132 -46 -32 -16 -66 -25 -85 -24 -45 4 -86
-16 -103 -49 -20 -37 -19 -46 5 -54 23 -7 50 -54 50 -87 0 -13 -11 -41 -25
-63 l-24 -40 0 -455 c0 -357 3 -469 14 -520 8 -36 14 -95 15 -131 0 -138 28
-345 54 -403 14 -31 29 -56 34 -56 6 0 13 -11 16 -26 6 -23 110 -134 126 -134
4 0 18 -10 32 -23 75 -66 165 -126 211 -138 17 -4 59 -18 92 -30 33 -12 83
-25 110 -29 213 -32 210 -32 250 -17 81 29 182 70 240 98 33 16 66 29 73 29
20 0 420 186 467 217 92 61 112 75 159 116 27 23 69 61 92 85 50 50 138 209
149 266 7 41 17 214 36 631 6 138 16 275 23 306 14 61 11 71 -39 144 -48 72
-41 161 16 190 66 35 110 12 155 -79 20 -39 42 -78 49 -86 7 -8 26 -44 42 -80
17 -36 41 -82 56 -103 l26 -38 6 48 c13 104 25 190 32 223 4 19 7 222 7 450
l1 415 -32 48 c-17 27 -52 92 -78 145 -94 201 -84 187 -138 190 -64 4 -198
-24 -218 -46 -8 -9 -21 -35 -28 -57 -19 -57 -148 -335 -165 -354 -7 -9 -24
-36 -36 -61 -13 -25 -35 -61 -50 -80 -28 -36 -90 -159 -90 -178 0 -26 -26 -65
-51 -78 -82 -42 -160 21 -144 116 8 48 86 209 125 260 15 19 37 54 49 78 l21
42 36 -15 c44 -18 113 -19 149 -3 29 13 55 55 55 88 0 55 -49 100 -108 100
-15 0 -43 6 -62 13 -53 19 -160 76 -160 85 0 9 -123 102 -160 122 -54 29 -115
83 -137 121 -13 23 -23 42 -23 44 0 1 14 8 30 14 17 6 44 16 60 22 33 13 60
54 60 91 0 33 -35 85 -69 102 -16 9 -56 19 -88 22 -32 4 -75 15 -95 25 -21 11
-48 19 -60 19 -13 0 -41 7 -63 15 -40 14 -72 17 -110 8z m570 -1501 c99 -20
141 -34 200 -64 33 -16 69 -33 80 -37 11 -3 68 -32 127 -64 l108 -58 -15 -28
c-8 -16 -19 -66 -25 -112 -6 -46 -16 -110 -23 -143 l-12 -59 -25 52 c-13 29
-32 57 -41 62 -9 5 -40 53 -67 106 -68 132 -125 193 -181 193 -46 0 -71 -24
-117 -109 -46 -85 -89 -148 -129 -186 -11 -11 -28 -30 -37 -43 -11 -17 -29
-25 -60 -29 -65 -7 -97 -23 -113 -54 -29 -54 -8 -117 45 -139 64 -26 196 5
248 59 59 61 111 122 140 163 15 21 29 38 32 38 3 0 20 -27 38 -60 18 -33 37
-60 42 -60 10 0 56 -91 81 -158 15 -42 60 -66 107 -58 l35 5 -6 -107 c-3 -59
-11 -196 -16 -305 l-11 -199 -37 -65 c-20 -36 -50 -78 -67 -94 -113 -103 -104
-96 -223 -173 -45 -29 -384 -186 -402 -186 -7 0 -41 -13 -75 -29 -33 -15 -88
-38 -121 -50 -33 -13 -70 -27 -83 -32 -32 -12 -84 -11 -172 5 -81 15 -95 19
-155 46 -22 10 -59 26 -82 36 -24 9 -43 20 -43 25 0 4 -16 17 -36 30 -20 12
-50 35 -67 50 -17 16 -35 29 -39 29 -4 0 -15 17 -23 38 -9 20 -25 44 -37 53
-17 13 -22 36 -34 145 -7 71 -14 161 -14 199 0 39 -7 99 -15 135 -10 44 -14
131 -15 271 l0 206 23 -4 c57 -11 106 16 198 108 49 49 93 89 97 89 5 0 20 16
34 36 l26 35 7 -48 c12 -80 63 -160 123 -192 35 -19 146 -26 182 -11 53 22 74
85 46 139 -18 33 -54 51 -106 51 -35 0 -40 3 -46 28 -3 15 -8 34 -11 42 -2 8
-8 62 -12 120 -9 116 -25 160 -66 178 -67 31 -131 -6 -225 -128 -31 -39 -57
-67 -120 -124 -8 -7 -37 -38 -65 -68 -87 -95 -85 -99 -85 140 l1 207 47 22
c26 11 76 28 112 37 36 8 89 22 117 31 137 41 162 48 218 57 164 26 727 33
840 10z"/>
<path d="M1824 1639 c-79 -9 -156 -39 -190 -73 -50 -49 -86 -174 -64 -217 36
-68 82 -91 195 -97 81 -4 96 -2 148 21 31 14 57 30 57 35 0 5 12 15 26 23 41
22 72 93 72 169 1 143 -35 164 -244 139z"/>
<path d="M1910 1130 c-223 -3 -413 -9 -423 -14 -21 -10 -47 -57 -47 -86 0 -35
27 -76 59 -89 22 -10 137 -12 468 -9 479 4 484 4 511 63 37 80 -17 147 -115
143 -26 -2 -230 -5 -453 -8z"/>
<path d="M395 1988 c-67 -34 -112 -76 -121 -115 -10 -36 3 -139 21 -174 22
-41 72 -71 110 -65 26 3 92 24 218 69 30 11 57 52 57 89 0 41 -50 131 -92 167
-82 72 -104 75 -193 29z"/>
<path d="M3362 1807 c-13 -6 -32 -28 -43 -48 -10 -21 -28 -40 -39 -44 -11 -4
-32 -29 -46 -57 -21 -42 -25 -59 -19 -97 8 -53 19 -77 49 -107 35 -35 62 -44
128 -44 80 0 131 14 164 45 15 14 31 25 35 25 15 0 39 58 39 92 0 18 -5 50
-11 71 -11 41 -73 111 -108 122 -12 3 -21 10 -21 15 0 14 -55 40 -82 39 -13 0
-33 -5 -46 -12z"/>
</g>
</svg>
